<?xml version="1.0" encoding="UTF-8" standalone="no"?>
<!-- Created with Inkscape (http://www.inkscape.org/) -->

<svg
   width="84.703316mm"
   height="118.02415mm"
   viewBox="0 0 84.703316 118.02415"
   version="1.1"
   id="svg5"
   xml:space="preserve"
   xmlns:inkscape="http://www.inkscape.org/namespaces/inkscape"
   xmlns:sodipodi="http://sodipodi.sourceforge.net/DTD/sodipodi-0.dtd"
   xmlns="http://www.w3.org/2000/svg"
   xmlns:svg="http://www.w3.org/2000/svg"><sodipodi:namedview
     id="namedview7"
     pagecolor="#ffffff"
     bordercolor="#cccccc"
     borderopacity="1"
     inkscape:showpageshadow="0"
     inkscape:pageopacity="1"
     inkscape:pagecheckerboard="0"
     inkscape:deskcolor="#d1d1d1"
     inkscape:document-units="mm"
     showgrid="false" /><defs
     id="defs2"><clipPath
       clipPathUnits="userSpaceOnUse"
       id="clipPath1304"><path
         d="M 190.117,396.286 H 422.503 V 80.0089 H 190.117 Z"
         id="path1302" /></clipPath><clipPath
       clipPathUnits="userSpaceOnUse"
       id="clipPath4424"><path
         d="m -273.0694,222.0337 h 749.99999 v -500 H -273.0694 Z"
         id="path4426"
         style="stroke-width:0.999998" /></clipPath><clipPath
       clipPathUnits="userSpaceOnUse"
       id="clipPath4428"><path
         d="m -275.0244,238.0327 h 749.99999 v -500 H -275.0244 Z"
         id="path4430"
         style="stroke-width:0.999998" /></clipPath><clipPath
       clipPathUnits="userSpaceOnUse"
       id="clipPath4432"><path
         d="M -258.3604,240.92919 H 491.63959 V -259.0708 H -258.3604 Z"
         id="path4434"
         style="stroke-width:0.999998" /></clipPath><clipPath
       clipPathUnits="userSpaceOnUse"
       id="clipPath4436"><path
         d="m -286.6221,222.6895 h 749.99999 v -500 H -286.6221 Z"
         id="path4438"
         style="stroke-width:0.999998" /></clipPath><clipPath
       clipPathUnits="userSpaceOnUse"
       id="clipPath4440"><path
         d="m -288.6104,238.1128 h 749.99999 v -500 H -288.6104 Z"
         id="path4442"
         style="stroke-width:0.999998" /></clipPath><clipPath
       clipPathUnits="userSpaceOnUse"
       id="clipPath4444"><path
         d="m -271.9121,241.5762 h 749.99999 v -500 H -271.9121 Z"
         id="path4446"
         style="stroke-width:0.999998" /></clipPath><clipPath
       clipPathUnits="userSpaceOnUse"
       id="clipPath4448"><path
         d="m -300.1817,223.32619 h 749.99999 v -500 H -300.1817 Z"
         id="path4450"
         style="stroke-width:0.999998" /></clipPath><clipPath
       clipPathUnits="userSpaceOnUse"
       id="clipPath4452"><path
         d="m -302.1953,238.19291 h 749.99999 v -500 H -302.1953 Z"
         id="path4454"
         style="stroke-width:0.999998" /></clipPath><clipPath
       clipPathUnits="userSpaceOnUse"
       id="clipPath4456"><path
         d="m -285.4639,242.2227 h 749.99999 v -500 H -285.4639 Z"
         id="path4458"
         style="stroke-width:0.999998" /></clipPath><clipPath
       clipPathUnits="userSpaceOnUse"
       id="clipPath4460"><path
         d="m -313.7344,223.97268 h 749.99999 v -500 H -313.7344 Z"
         id="path4462"
         style="stroke-width:0.999998" /></clipPath><clipPath
       clipPathUnits="userSpaceOnUse"
       id="clipPath4464"><path
         d="m -315.7637,238.27639 h 749.99999 v -500 H -315.7637 Z"
         id="path4466"
         style="stroke-width:0.999998" /></clipPath><clipPath
       clipPathUnits="userSpaceOnUse"
       id="clipPath4468"><path
         d="m -299.0254,242.86821 h 749.99999 v -500 H -299.0254 Z"
         id="path4470"
         style="stroke-width:0.999998" /></clipPath><clipPath
       clipPathUnits="userSpaceOnUse"
       id="clipPath4472"><path
         d="m -327.2862,224.61961 h 749.99999 v -500 H -327.2862 Z"
         id="path4474"
         style="stroke-width:0.999998" /></clipPath><clipPath
       clipPathUnits="userSpaceOnUse"
       id="clipPath4476"><path
         d="m -329.3389,238.34859 h 749.99999 v -500 H -329.3389 Z"
         id="path4478"
         style="stroke-width:0.999998" /></clipPath><clipPath
       clipPathUnits="userSpaceOnUse"
       id="clipPath4480"><path
         d="m -312.5772,243.5151 h 749.99999 v -500 H -312.5772 Z"
         id="path4482"
         style="stroke-width:0.999998" /></clipPath><clipPath
       clipPathUnits="userSpaceOnUse"
       id="clipPath4484"><path
         d="m -340.8467,225.26508 h 749.99999 v -500 H -340.8467 Z"
         id="path4486"
         style="stroke-width:0.999998" /></clipPath><clipPath
       clipPathUnits="userSpaceOnUse"
       id="clipPath4488"><path
         d="m -342.8975,238.4336 h 749.99999 v -500 H -342.8975 Z"
         id="path4490"
         style="stroke-width:0.999998" /></clipPath><clipPath
       clipPathUnits="userSpaceOnUse"
       id="clipPath4492"><path
         d="m -326.1289,244.16211 h 749.99999 v -500 H -326.1289 Z"
         id="path4494"
         style="stroke-width:0.999998" /></clipPath><clipPath
       clipPathUnits="userSpaceOnUse"
       id="clipPath4496"><path
         d="m -354.3985,225.91209 h 749.99999 v -500 H -354.3985 Z"
         id="path4498"
         style="stroke-width:0.999998" /></clipPath><clipPath
       clipPathUnits="userSpaceOnUse"
       id="clipPath4500"><path
         d="m -356.4551,238.5088 h 749.99999 v -500 H -356.4551 Z"
         id="path4502"
         style="stroke-width:0.999998" /></clipPath><clipPath
       clipPathUnits="userSpaceOnUse"
       id="clipPath4504"><path
         d="M -339.6895,244.80758 H 410.31049 V -255.19241 H -339.6895 Z"
         id="path4506"
         style="stroke-width:0.999998" /></clipPath><clipPath
       clipPathUnits="userSpaceOnUse"
       id="clipPath4508"><path
         d="m -367.9512,226.5591 h 749.99999 v -500 H -367.9512 Z"
         id="path4510"
         style="stroke-width:0.999998" /></clipPath><clipPath
       clipPathUnits="userSpaceOnUse"
       id="clipPath4512"><path
         d="m -370.0137,238.59379 h 749.99999 v -500 H -370.0137 Z"
         id="path4514"
         style="stroke-width:0.999998" /></clipPath><clipPath
       clipPathUnits="userSpaceOnUse"
       id="clipPath4516"><path
         d="m -353.2422,245.45459 h 749.99999 v -500 H -353.2422 Z"
         id="path4518"
         style="stroke-width:0.999998" /></clipPath><clipPath
       clipPathUnits="userSpaceOnUse"
       id="clipPath4520"><path
         d="m -383.5616,238.67089 h 749.99999 v -500 H -383.5616 Z"
         id="path4522"
         style="stroke-width:0.999998" /></clipPath><clipPath
       clipPathUnits="userSpaceOnUse"
       id="clipPath4524"><path
         d="m -366.794,246.10109 h 749.99999 v -500 H -366.794 Z"
         id="path4526"
         style="stroke-width:0.999998" /></clipPath><clipPath
       clipPathUnits="userSpaceOnUse"
       id="clipPath4528"><path
         d="m -366.794,246.10109 h 749.99999 v -500 H -366.794 Z"
         id="path4530"
         style="stroke-width:0.999998" /></clipPath><clipPath
       clipPathUnits="userSpaceOnUse"
       id="clipPath4532"><path
         d="m -353.2422,245.45459 h 749.99999 v -500 H -353.2422 Z"
         id="path4534"
         style="stroke-width:0.999998" /></clipPath><clipPath
       clipPathUnits="userSpaceOnUse"
       id="clipPath4536"><path
         d="M -339.6895,244.80758 H 410.31049 V -255.19241 H -339.6895 Z"
         id="path4538"
         style="stroke-width:0.999998" /></clipPath><clipPath
       clipPathUnits="userSpaceOnUse"
       id="clipPath4540"><path
         d="m -326.1289,244.16211 h 749.99999 v -500 H -326.1289 Z"
         id="path4542"
         style="stroke-width:0.999998" /></clipPath><clipPath
       clipPathUnits="userSpaceOnUse"
       id="clipPath4544"><path
         d="m -312.5772,243.5151 h 749.99999 v -500 H -312.5772 Z"
         id="path4546"
         style="stroke-width:0.999998" /></clipPath><clipPath
       clipPathUnits="userSpaceOnUse"
       id="clipPath4548"><path
         d="m -299.0254,242.86821 h 749.99999 v -500 H -299.0254 Z"
         id="path4550"
         style="stroke-width:0.999998" /></clipPath><clipPath
       clipPathUnits="userSpaceOnUse"
       id="clipPath4552"><path
         d="m -285.4639,242.2227 h 749.99999 v -500 H -285.4639 Z"
         id="path4554"
         style="stroke-width:0.999998" /></clipPath><clipPath
       clipPathUnits="userSpaceOnUse"
       id="clipPath4556"><path
         d="m -271.9121,241.5762 h 749.99999 v -500 H -271.9121 Z"
         id="path4558"
         style="stroke-width:0.999998" /></clipPath><clipPath
       clipPathUnits="userSpaceOnUse"
       id="clipPath4560"><path
         d="M -258.3604,240.92919 H 491.63959 V -259.0708 H -258.3604 Z"
         id="path4562"
         style="stroke-width:0.999998" /></clipPath><clipPath
       clipPathUnits="userSpaceOnUse"
       id="clipPath4564"><path
         d="m -388.4141,238.69819 h 749.99999 v -500 H -388.4141 Z"
         id="path4566"
         style="stroke-width:0.999998" /></clipPath><clipPath
       clipPathUnits="userSpaceOnUse"
       id="clipPath4568"><path
         d="m -182.3994,380.3496 h 749.99999 v -500 H -182.3994 Z"
         id="path4570"
         style="stroke-width:0.999998" /></clipPath><clipPath
       clipPathUnits="userSpaceOnUse"
       id="clipPath4572"><path
         d="m -182.3994,380.3496 h 749.99999 v -500 H -182.3994 Z"
         id="path4574"
         style="stroke-width:0.999998" /></clipPath><clipPath
       clipPathUnits="userSpaceOnUse"
       id="clipPath4576"><path
         d="m -244.8975,237.85689 h 749.99999 v -500 H -244.8975 Z"
         id="path4578"
         style="stroke-width:0.999998" /></clipPath><clipPath
       clipPathUnits="userSpaceOnUse"
       id="clipPath4580"><path
         d="M -1.2992126e-6,500 H 749.99999 V -1.8897636e-6 H -1.2992126e-6 Z"
         id="path4582"
         style="stroke-width:0.999998" /></clipPath></defs><g
     id="g5012"
     transform="translate(-10.860653,-100.56339)"><g
       id="g1298"
       transform="matrix(0.35277777,0,0,-0.35277777,-53.485695,246.8129)"
       clip-path="url(#clipPath4580)"><g
         id="g1300" /><g
         id="g1312"><g
           clip-path="url(#clipPath1304)"
           opacity="0.380005"
           id="g1310"><g
             transform="translate(422.4356,386.8784)"
             id="g1308"><path
               d="m 0,0 c 0.634,4.992 -3.257,9.407 -8.288,9.407 h -8.81 l -123.166,-2.571 -33.005,-146.189 5.978,0.145 v 0 l -5.978,-0.145 -59.05,-140.131 h 0.006 l -0.005,-0.003 -10e-4,-22.267 155.548,-5.116 52.271,144.216 6.974,24.617 z"
               style="fill:#000000;fill-opacity:1;fill-rule:nonzero;stroke:none"
               id="path1306" /></g></g></g></g><g
       id="g1314"
       transform="matrix(0.35277777,0,0,-0.35277777,32.908699,154.33464)"
       clip-path="url(#clipPath4576)"><path
         d="m 0,0 35.061,145.253 c 1.041,4.312 4.941,7.301 9.35,7.165 l 118.943,-3.652 c 5.796,-0.178 10.029,-5.578 8.849,-11.289 L 148.008,-27.776 Z"
         style="fill:#005050;fill-opacity:1;fill-rule:nonzero;stroke:none"
         id="path1316" /></g><g
       id="g1318"
       transform="matrix(0.35277777,0,0,-0.35277777,10.860759,204.6029)"
       clip-path="url(#clipPath4572)"><path
         d="m 0,0 3.541,-21.222 144.641,-9.267 62.324,145.206 -4.494,26.937 z"
         style="fill:#003d3c;fill-opacity:1;fill-rule:nonzero;stroke:none"
         id="path1320" /></g><g
       id="g1322"
       transform="matrix(0.35277777,0,0,-0.35277777,10.860759,204.6029)"
       clip-path="url(#clipPath4568)"><path
         d="m 0,0 1.933,-11.581 142.771,-9.641 63.494,149.767 -2.183,13.106 z"
         style="fill:#f1e4d1;fill-opacity:1;fill-rule:nonzero;stroke:none"
         id="path1324" /></g><g
       id="g1326"
       transform="matrix(0.35277777,0,0,-0.35277777,83.538165,154.63143)"
       clip-path="url(#clipPath4564)"><path
         d="m 0,0 -64.863,-149.802 -141.152,8.151 62.498,142.492 7.26,-0.044 c 0.159,-1.555 0.395,-3.024 0.64,-4.326 -0.329,-1.316 -1.03,-4.406 -1.03,-4.406 l 1.974,0.224 3.411,0.382 0.45,0.048 0.758,5.05 -2.273,-0.301 c -0.191,1.035 -0.368,2.155 -0.506,3.309 l 10.069,-0.057 c 0.167,-1.765 0.427,-3.433 0.699,-4.896 -0.349,-1.31 -1.031,-4.406 -1.031,-4.406 l 1.975,0.224 3.412,0.382 0.449,0.048 0.758,5.05 -2.264,-0.299 c -0.219,1.205 -0.428,2.513 -0.574,3.877 l 2.674,-0.017 3.276,-0.017 4.12,-0.023 c 0.174,-1.976 0.458,-3.842 0.765,-5.464 -0.349,-1.31 -1.029,-4.406 -1.029,-4.406 l 1.966,0.222 3.42,0.384 0.449,0.048 0.749,5.049 -2.264,-0.3 c -0.257,1.373 -0.48,2.881 -0.632,4.447 l 2.774,-0.019 3.268,-0.019 4.056,-0.023 c 0.153,-2.183 0.463,-4.255 0.796,-6.03 -0.349,-1.31 -1.03,-4.406 -1.03,-4.406 l 1.974,0.223 3.411,0.383 0.45,0.048 0.758,5.05 -2.273,-0.301 c -0.285,1.544 -0.534,3.259 -0.691,5.017 l 2.858,-0.024 3.276,-0.017 3.984,-0.026 c 0.141,-2.387 0.476,-4.667 0.835,-6.594 -0.349,-1.31 -1.031,-4.406 -1.031,-4.406 l 1.975,0.223 3.412,0.383 0.449,0.048 0.758,5.05 -2.264,-0.299 c -0.312,1.704 -0.594,3.616 -0.739,5.579 l 2.92,-0.013 3.27,-0.028 3.935,-0.016 c 0.123,-2.602 0.483,-5.089 0.875,-7.166 -0.348,-1.31 -1.039,-4.407 -1.039,-4.407 l 1.976,0.222 3.42,0.384 0.449,0.049 0.749,5.048 -2.264,-0.299 c -0.341,1.874 -0.646,3.985 -0.778,6.143 l 2.974,-0.013 3.278,-0.017 3.899,-0.023 c 0.092,-2.8 0.471,-5.505 0.888,-7.734 -0.348,-1.31 -1.029,-4.406 -1.029,-4.406 l 1.974,0.223 3.411,0.383 0.45,0.048 0.757,5.05 -2.272,-0.301 c -0.376,2.034 -0.7,4.362 -0.81,6.717 l 3.022,-0.023 3.268,-0.019 3.881,-0.016 c 0.052,-3 0.448,-5.923 0.901,-8.303 -0.349,-1.31 -1.031,-4.406 -1.031,-4.406 l 1.975,0.223 3.411,0.383 0.449,0.048 0.759,5.05 -2.264,-0.3 c -0.403,2.196 -0.746,4.742 -0.832,7.285 l 3.04,-0.021 3.269,-0.019 3.873,-0.027 c 0.003,-3.201 0.434,-6.329 0.911,-8.862 -0.329,-1.316 -1.039,-4.406 -1.039,-4.406 l 1.975,0.222 3.421,0.384 0.44,0.047 0.758,5.05 -2.264,-0.3 c -0.431,2.366 -0.8,5.119 -0.843,7.844 l 3.048,-0.01 3.279,-0.027 10.271,-0.06 3.276,-0.017 z"
         style="fill:#fbfee8;fill-opacity:1;fill-rule:nonzero;stroke:none"
         id="path1328" /></g><g
       id="g1330"
       transform="matrix(0.35277777,0,0,-0.35277777,37.658111,155.41848)"
       clip-path="url(#clipPath4560)"><path
         d="m 0,0 -0.758,-5.05 -0.45,-0.048 -3.411,-0.382 -1.975,-0.224 c 0,0 0.701,3.09 1.031,4.406 -0.246,1.302 -0.481,2.771 -0.64,4.326 l 3.424,-0.02 c 0.137,-1.154 0.315,-2.274 0.506,-3.309 z"
         style="fill:#79cdbf;fill-opacity:1;fill-rule:nonzero;stroke:none"
         id="path1332" /></g><g
       id="g1334"
       transform="matrix(0.35277777,0,0,-0.35277777,42.438849,155.64673)"
       clip-path="url(#clipPath4556)"><path
         d="M 0,0 -0.758,-5.05 -1.207,-5.098 -4.619,-5.48 -6.594,-5.704 c 0,0 0.682,3.096 1.031,4.406 -0.272,1.463 -0.532,3.131 -0.699,4.896 l 3.424,-0.02 c 0.146,-1.364 0.355,-2.672 0.574,-3.877 z"
         style="fill:#79cdbf;fill-opacity:1;fill-rule:nonzero;stroke:none"
         id="path1336" /></g><g
       id="g1338"
       transform="matrix(0.35277777,0,0,-0.35277777,47.219623,155.8748)"
       clip-path="url(#clipPath4552)"><path
         d="m 0,0 -0.749,-5.048 -0.449,-0.049 -3.42,-0.384 -1.966,-0.222 c 0,0 0.681,3.097 1.029,4.406 -0.306,1.623 -0.591,3.488 -0.764,5.464 l 3.423,-0.02 c 0.152,-1.565 0.375,-3.073 0.632,-4.446 z"
         style="fill:#79cdbf;fill-opacity:1;fill-rule:nonzero;stroke:none"
         id="path1340" /></g><g
       id="g1342"
       transform="matrix(0.35277777,0,0,-0.35277777,52.003819,156.10252)"
       clip-path="url(#clipPath4548)"><path
         d="m 0,0 -0.759,-5.05 -0.449,-0.048 -3.411,-0.383 -1.975,-0.223 c 0,0 0.682,3.096 1.031,4.406 -0.333,1.775 -0.643,3.847 -0.796,6.029 l 3.395,-0.015 c 0.156,-1.758 0.405,-3.473 0.691,-5.017 z"
         style="fill:#79cdbf;fill-opacity:1;fill-rule:nonzero;stroke:none"
         id="path1344" /></g><g
       id="g1346"
       transform="matrix(0.35277777,0,0,-0.35277777,56.784593,156.33073)"
       clip-path="url(#clipPath4544)"><path
         d="m 0,0 -0.758,-5.05 -0.449,-0.048 -3.412,-0.383 -1.975,-0.223 c 0,0 0.682,3.096 1.031,4.406 -0.359,1.926 -0.694,4.207 -0.835,6.593 L -3.003,5.28 c 0.145,-1.963 0.427,-3.875 0.739,-5.579 z"
         style="fill:#79cdbf;fill-opacity:1;fill-rule:nonzero;stroke:none"
         id="path1348" /></g><g
       id="g1350"
       transform="matrix(0.35277777,0,0,-0.35277777,61.565331,156.55898)"
       clip-path="url(#clipPath4540)"><path
         d="m 0,0 -0.749,-5.048 -0.449,-0.049 -3.42,-0.384 -1.976,-0.223 c 0,0 0.691,3.098 1.039,4.408 -0.392,2.077 -0.752,4.564 -0.875,7.166 l 3.388,-0.026 c 0.132,-2.158 0.438,-4.269 0.778,-6.143 z"
         style="fill:#79cdbf;fill-opacity:1;fill-rule:nonzero;stroke:none"
         id="path1352" /></g><g
       id="g1354"
       transform="matrix(0.35277777,0,0,-0.35277777,66.349209,156.78669)"
       clip-path="url(#clipPath4536)"><path
         d="M 0,0 -0.758,-5.05 -1.207,-5.098 -4.618,-5.48 -6.593,-5.704 c 0,0 0.682,3.096 1.03,4.406 -0.417,2.23 -0.796,4.935 -0.888,7.735 l 3.369,-0.02 c 0.109,-2.356 0.434,-4.684 0.81,-6.718 z"
         style="fill:#79cdbf;fill-opacity:1;fill-rule:nonzero;stroke:none"
         id="path1356" /></g><g
       id="g1358"
       transform="matrix(0.35277777,0,0,-0.35277777,71.130301,157.01494)"
       clip-path="url(#clipPath4532)"><path
         d="M 0,0 -0.759,-5.05 -1.208,-5.098 -4.619,-5.48 -6.594,-5.704 c 0,0 0.682,3.096 1.031,4.406 -0.453,2.38 -0.849,5.303 -0.901,8.303 l 3.368,-0.02 c 0.086,-2.543 0.429,-5.089 0.832,-7.284 z"
         style="fill:#79cdbf;fill-opacity:1;fill-rule:nonzero;stroke:none"
         id="path1360" /></g><g
       id="g1362"
       transform="matrix(0.35277777,0,0,-0.35277777,75.911074,157.24301)"
       clip-path="url(#clipPath4528)"><path
         d="m 0,0 -0.758,-5.05 -0.44,-0.047 -3.421,-0.384 -1.975,-0.223 c 0,0 0.71,3.091 1.039,4.407 -0.477,2.532 -0.908,5.661 -0.911,8.862 l 3.36,-0.022 C -3.063,4.818 -2.695,2.065 -2.264,-0.3 Z"
         style="fill:#79cdbf;fill-opacity:1;fill-rule:nonzero;stroke:none"
         id="path1364" /></g><g
       id="g1366"
       transform="matrix(0.35277777,0,0,-0.35277777,75.911074,157.24301)"
       clip-path="url(#clipPath4524)"><path
         d="m 0,0 -0.758,-5.05 -0.44,-0.047 -3.421,-0.384 -1.975,-0.223 c 0,0 0.71,3.091 1.039,4.407 0.086,0.309 0.142,0.521 0.169,0.581 l 3.122,0.416 z"
         style="fill:#005050;fill-opacity:1;fill-rule:nonzero;stroke:none"
         id="path1368" /></g><g
       id="g1370"
       transform="matrix(0.35277777,0,0,-0.35277777,81.826311,154.6218)"
       clip-path="url(#clipPath4520)"><path
         d="m 0,0 -3.276,0.017 c -0.104,4.84 -0.905,10.243 -3.456,12.655 -1.247,1.17 -2.835,1.536 -4.889,1.125 -1.558,-0.309 -2.883,-0.863 -3.989,-1.685 -0.945,-0.702 -1.74,-1.582 -2.389,-2.675 -0.014,-0.03 -0.028,-0.051 -0.042,-0.082 -1.442,-2.479 -1.89,-5.829 -1.833,-9.242 0.043,-2.725 0.411,-5.478 0.843,-7.843 l 10e-4,-0.009 c 0.35,-1.937 0.75,-3.617 1.064,-4.788 l -3.421,-0.384 c -0.264,0.986 -0.617,2.444 -0.935,4.184 -0.478,2.532 -0.908,5.661 -0.911,8.862 -0.029,3.896 0.569,7.879 2.419,10.988 0.335,0.563 0.699,1.075 1.092,1.565 0.705,0.873 1.512,1.625 2.415,2.247 1.439,1.025 3.123,1.723 5.045,2.103 3.123,0.629 5.731,-0.036 7.772,-1.963 C -1.017,11.797 -0.106,5.3 0,0"
         style="fill:#eaa241;fill-opacity:1;fill-rule:nonzero;stroke:none"
         id="path1372" /></g><g
       id="g1374"
       transform="matrix(0.35277777,0,0,-0.35277777,71.130301,157.01494)"
       clip-path="url(#clipPath4516)"><path
         d="M 0,0 -0.759,-5.05 -1.208,-5.098 -4.619,-5.48 -6.594,-5.704 c 0,0 0.682,3.096 1.031,4.406 0.084,0.309 0.15,0.523 0.176,0.582 l 3.123,0.417 z"
         style="fill:#005050;fill-opacity:1;fill-rule:nonzero;stroke:none"
         id="path1376" /></g><g
       id="g1378"
       transform="matrix(0.35277777,0,0,-0.35277777,77.046913,154.5946)"
       clip-path="url(#clipPath4512)"><path
         d="m 0,0 -3.278,0.026 c -0.035,3.113 -0.348,6.519 -1.215,9.252 0.014,0.031 0.028,0.052 0.042,0.081 0.649,1.094 1.444,1.974 2.388,2.676 C -0.482,8.484 -0.042,3.866 0,0"
         style="fill:#005050;fill-opacity:1;fill-rule:nonzero;stroke:none"
         id="path1380" /></g><g
       id="g1382"
       transform="matrix(0.35277777,0,0,-0.35277777,76.319309,150.34903)"
       clip-path="url(#clipPath4508)"><path
         d="m 0,0 c -0.944,-0.702 -1.739,-1.582 -2.389,-2.675 -0.013,-0.03 -0.028,-0.051 -0.042,-0.081 -0.418,1.3 -0.966,2.449 -1.68,3.332 -0.175,0.228 -0.367,0.444 -0.572,0.63 -1.238,1.171 -2.827,1.538 -4.88,1.127 -1.557,-0.31 -2.882,-0.864 -3.99,-1.686 -0.944,-0.693 -1.737,-1.59 -2.388,-2.676 -0.013,-0.03 -0.028,-0.05 -0.041,-0.08 -1.522,-2.612 -1.937,-6.206 -1.823,-9.802 0.086,-2.543 0.429,-5.089 0.832,-7.284 0.352,-1.946 0.751,-3.626 1.056,-4.799 l -3.411,-0.382 c -0.265,0.985 -0.618,2.444 -0.944,4.183 -0.453,2.38 -0.849,5.303 -0.901,8.302 -0.076,4.072 0.482,8.297 2.417,11.549 0.338,0.554 0.699,1.075 1.094,1.555 0.705,0.874 1.504,1.625 2.404,2.256 1.441,1.015 3.133,1.724 5.054,2.104 C -7.089,6.2 -4.473,5.538 -2.432,3.61 -2.172,3.369 -1.926,3.097 -1.696,2.823 -1.021,2.008 -0.46,1.054 0,0"
         style="fill:#eaa241;fill-opacity:1;fill-rule:nonzero;stroke:none"
         id="path1384" /></g><g
       id="g1386"
       transform="matrix(0.35277777,0,0,-0.35277777,66.349209,156.78669)"
       clip-path="url(#clipPath4504)"><path
         d="M 0,0 -0.758,-5.05 -1.207,-5.098 -4.618,-5.48 -6.593,-5.704 c 0,0 0.682,3.096 1.03,4.406 0.085,0.309 0.151,0.522 0.168,0.581 l 3.123,0.416 z"
         style="fill:#005050;fill-opacity:1;fill-rule:nonzero;stroke:none"
         id="path1388" /></g><g
       id="g1390"
       transform="matrix(0.35277777,0,0,-0.35277777,72.26374,154.56462)"
       clip-path="url(#clipPath4500)"><path
         d="m 0,0 -3.269,0.019 c -0.004,3.265 -0.294,6.923 -1.217,9.821 0.013,0.031 0.028,0.051 0.041,0.081 0.651,1.085 1.444,1.983 2.388,2.676 C -0.4,8.865 0.004,3.975 0,0"
         style="fill:#005050;fill-opacity:1;fill-rule:nonzero;stroke:none"
         id="path1392" /></g><g
       id="g1394"
       transform="matrix(0.35277777,0,0,-0.35277777,71.538218,150.12078)"
       clip-path="url(#clipPath4496)"><path
         d="m 0,0 c -0.944,-0.693 -1.737,-1.59 -2.389,-2.676 -0.012,-0.03 -0.027,-0.05 -0.041,-0.08 -0.418,1.3 -0.965,2.441 -1.679,3.322 -0.177,0.238 -0.367,0.445 -0.573,0.64 -1.238,1.171 -2.827,1.538 -4.88,1.127 -1.549,-0.308 -2.882,-0.864 -3.99,-1.686 -0.943,-0.702 -1.748,-1.583 -2.388,-2.676 -0.014,-0.03 -0.029,-0.051 -0.041,-0.08 -1.61,-2.746 -1.985,-6.582 -1.81,-10.37 0.109,-2.355 0.434,-4.683 0.81,-6.717 0.352,-1.947 0.76,-3.625 1.065,-4.797 l -3.411,-0.383 c -0.267,0.995 -0.618,2.444 -0.945,4.183 -0.417,2.229 -0.796,4.934 -0.888,7.734 -0.141,4.245 0.376,8.711 2.405,12.117 0.336,0.563 0.697,1.084 1.093,1.565 0.704,0.873 1.504,1.615 2.405,2.246 1.44,1.015 3.133,1.724 5.054,2.104 C -7.089,6.2 -4.48,5.536 -2.439,3.608 -2.181,3.367 -1.934,3.096 -1.705,2.822 -1.021,2.008 -0.468,1.053 0,0"
         style="fill:#eaa241;fill-opacity:1;fill-rule:nonzero;stroke:none"
         id="path1396" /></g><g
       id="g1398"
       transform="matrix(0.35277777,0,0,-0.35277777,61.565331,156.55898)"
       clip-path="url(#clipPath4492)"><path
         d="m 0,0 -0.749,-5.048 -0.449,-0.049 -3.42,-0.384 -1.976,-0.223 c 0,0 0.691,3.098 1.039,4.408 0.077,0.307 0.141,0.529 0.169,0.58 l 3.122,0.417 z"
         style="fill:#005050;fill-opacity:1;fill-rule:nonzero;stroke:none"
         id="path1400" /></g><g
       id="g1402"
       transform="matrix(0.35277777,0,0,-0.35277777,67.48092,154.53809)"
       clip-path="url(#clipPath4488)"><path
         d="m 0,0 -3.269,0.019 c 0.038,3.401 -0.233,7.32 -1.211,10.393 0.012,0.03 0.027,0.051 0.041,0.081 0.64,1.092 1.445,1.973 2.388,2.675 C -0.318,9.256 0.053,4.066 0,0"
         style="fill:#005050;fill-opacity:1;fill-rule:nonzero;stroke:none"
         id="path1404" /></g><g
       id="g1406"
       transform="matrix(0.35277777,0,0,-0.35277777,66.757444,149.89253)"
       clip-path="url(#clipPath4484)"><path
         d="m 0,0 c -0.943,-0.702 -1.748,-1.583 -2.389,-2.676 -0.013,-0.03 -0.028,-0.051 -0.041,-0.08 -0.419,1.3 -0.966,2.449 -1.68,3.332 -0.176,0.228 -0.368,0.444 -0.573,0.63 -1.237,1.171 -2.826,1.538 -4.88,1.127 -1.557,-0.31 -2.882,-0.865 -3.998,-1.687 -0.945,-0.694 -1.738,-1.591 -2.379,-2.675 -0.014,-0.03 -0.037,-0.061 -0.049,-0.091 -1.686,-2.888 -2.011,-6.972 -1.771,-10.933 0.132,-2.158 0.438,-4.269 0.779,-6.143 0.351,-1.947 0.759,-3.626 1.065,-4.798 l -3.42,-0.384 c -0.267,0.995 -0.618,2.444 -0.936,4.185 -0.393,2.077 -0.752,4.564 -0.875,7.166 -0.206,4.408 0.26,9.124 2.382,12.684 0.329,0.551 0.7,1.074 1.095,1.555 0.704,0.873 1.51,1.635 2.413,2.256 1.439,1.025 3.123,1.724 5.045,2.103 C -7.089,6.2 -4.481,5.536 -2.44,3.608 -2.181,3.367 -1.934,3.096 -1.705,2.822 -1.021,2.008 -0.468,1.053 0,0"
         style="fill:#eaa241;fill-opacity:1;fill-rule:nonzero;stroke:none"
         id="path1408" /></g><g
       id="g1410"
       transform="matrix(0.35277777,0,0,-0.35277777,56.784593,156.33073)"
       clip-path="url(#clipPath4480)"><path
         d="m 0,0 -0.758,-5.05 -0.449,-0.048 -3.412,-0.383 -1.975,-0.223 c 0,0 0.682,3.096 1.031,4.406 0.085,0.309 0.149,0.531 0.176,0.582 l 3.123,0.417 z"
         style="fill:#005050;fill-opacity:1;fill-rule:nonzero;stroke:none"
         id="path1412" /></g><g
       id="g1414"
       transform="matrix(0.35277777,0,0,-0.35277777,62.697748,154.5081)"
       clip-path="url(#clipPath4476)"><path
         d="m 0,0 -3.277,0.017 c 0.071,3.517 -0.17,7.708 -1.204,10.947 0.012,0.03 0.035,0.061 0.048,0.091 0.642,1.084 1.435,1.981 2.38,2.674 C -0.236,9.638 0.076,4.144 0,0"
         style="fill:#005050;fill-opacity:1;fill-rule:nonzero;stroke:none"
         id="path1416" /></g><g
       id="g1418"
       transform="matrix(0.35277777,0,0,-0.35277777,61.973601,149.66482)"
       clip-path="url(#clipPath4472)"><path
         d="m 0,0 c -0.945,-0.693 -1.738,-1.59 -2.38,-2.674 -0.014,-0.03 -0.036,-0.061 -0.049,-0.091 -0.418,1.3 -0.967,2.45 -1.68,3.331 -0.177,0.237 -0.368,0.445 -0.574,0.64 -1.238,1.17 -2.826,1.537 -4.88,1.127 -1.557,-0.31 -2.882,-0.865 -3.989,-1.686 -0.944,-0.702 -1.739,-1.582 -2.389,-2.676 -0.013,-0.03 -0.028,-0.051 -0.041,-0.08 -1.763,-3.03 -2.046,-7.365 -1.73,-11.507 0.145,-1.963 0.427,-3.874 0.739,-5.579 0.352,-1.946 0.751,-3.627 1.057,-4.799 l -3.412,-0.382 c -0.267,0.994 -0.618,2.444 -0.944,4.183 -0.359,1.926 -0.694,4.207 -0.835,6.593 -0.27,4.573 0.144,9.546 2.351,13.258 0.327,0.561 0.697,1.084 1.093,1.564 0.705,0.874 1.512,1.626 2.414,2.248 1.438,1.025 3.124,1.723 5.045,2.103 C -7.08,6.201 -4.473,5.538 -2.432,3.61 -2.172,3.368 -1.926,3.097 -1.696,2.823 -1.021,2.008 -0.46,1.054 0,0"
         style="fill:#eaa241;fill-opacity:1;fill-rule:nonzero;stroke:none"
         id="path1420" /></g><g
       id="g1422"
       transform="matrix(0.35277777,0,0,-0.35277777,52.003819,156.10252)"
       clip-path="url(#clipPath4468)"><path
         d="m 0,0 -0.759,-5.05 -0.449,-0.048 -3.411,-0.383 -1.975,-0.223 c 0,0 0.682,3.096 1.031,4.406 0.084,0.309 0.148,0.531 0.167,0.58 l 3.123,0.417 z"
         style="fill:#005050;fill-opacity:1;fill-rule:nonzero;stroke:none"
         id="path1424" /></g><g
       id="g1426"
       transform="matrix(0.35277777,0,0,-0.35277777,57.908719,154.48263)"
       clip-path="url(#clipPath4464)"><path
         d="m 0,0 -3.27,0.028 c 0.107,3.633 -0.099,8.106 -1.19,11.519 0.014,0.03 0.028,0.051 0.041,0.081 0.65,1.094 1.445,1.974 2.39,2.676 C -0.136,10.023 0.132,4.199 0,0"
         style="fill:#005050;fill-opacity:1;fill-rule:nonzero;stroke:none"
         id="path1428" /></g><g
       id="g1430"
       transform="matrix(0.35277777,0,0,-0.35277777,57.192827,149.4366)"
       clip-path="url(#clipPath4460)"><path
         d="m 0,0 c -0.944,-0.702 -1.739,-1.582 -2.39,-2.676 -0.012,-0.03 -0.027,-0.051 -0.041,-0.08 -0.418,1.3 -0.966,2.449 -1.68,3.331 -0.177,0.237 -0.368,0.445 -0.574,0.639 -1.236,1.162 -2.825,1.529 -4.878,1.118 -1.558,-0.309 -2.882,-0.864 -3.99,-1.686 -0.945,-0.692 -1.737,-1.59 -2.388,-2.675 -0.013,-0.03 -0.029,-0.051 -0.041,-0.08 -1.851,-3.165 -2.071,-7.765 -1.691,-12.071 0.156,-1.758 0.405,-3.473 0.691,-5.017 0.352,-1.946 0.76,-3.625 1.065,-4.797 l -3.411,-0.382 c -0.267,0.994 -0.618,2.443 -0.944,4.183 -0.333,1.774 -0.643,3.847 -0.796,6.029 -0.339,4.717 0.012,9.956 2.312,13.822 0.336,0.563 0.697,1.084 1.102,1.566 0.695,0.872 1.505,1.615 2.396,2.244 1.441,1.016 3.133,1.725 5.054,2.105 C -7.089,6.2 -4.481,5.536 -2.432,3.61 -2.172,3.368 -1.926,3.097 -1.697,2.823 -1.021,2.008 -0.46,1.054 0,0"
         style="fill:#eaa241;fill-opacity:1;fill-rule:nonzero;stroke:none"
         id="path1432" /></g><g
       id="g1434"
       transform="matrix(0.35277777,0,0,-0.35277777,47.219623,155.8748)"
       clip-path="url(#clipPath4456)"><path
         d="m 0,0 -0.749,-5.048 -0.449,-0.049 -3.42,-0.384 -1.966,-0.222 c 0,0 0.681,3.097 1.029,4.406 0.077,0.308 0.141,0.53 0.169,0.581 l 3.122,0.417 z"
         style="fill:#005050;fill-opacity:1;fill-rule:nonzero;stroke:none"
         id="path1436" /></g><g
       id="g1438"
       transform="matrix(0.35277777,0,0,-0.35277777,53.122089,154.45318)"
       clip-path="url(#clipPath4452)"><path
         d="m 0,0 -3.276,0.017 c 0.156,3.725 -0.019,8.497 -1.167,12.094 0.012,0.03 0.028,0.051 0.041,0.08 0.651,1.085 1.443,1.983 2.388,2.676 C -0.032,10.39 0.165,4.223 0,0"
         style="fill:#005050;fill-opacity:1;fill-rule:nonzero;stroke:none"
         id="path1440" /></g><g
       id="g1442"
       transform="matrix(0.35277777,0,0,-0.35277777,52.411736,149.20853)"
       clip-path="url(#clipPath4448)"><path
         d="m 0,0 c -0.945,-0.693 -1.737,-1.59 -2.389,-2.675 -0.012,-0.03 -0.028,-0.051 -0.041,-0.081 -0.418,1.3 -0.966,2.449 -1.672,3.333 -0.185,0.235 -0.376,0.443 -0.582,0.638 -1.236,1.162 -2.825,1.529 -4.878,1.118 -1.558,-0.31 -2.892,-0.866 -3.998,-1.696 -0.952,-0.704 -1.729,-1.58 -2.38,-2.665 -0.014,-0.03 -0.036,-0.062 -0.049,-0.092 -1.927,-3.305 -2.076,-8.17 -1.624,-12.629 0.151,-1.566 0.375,-3.074 0.632,-4.447 0.351,-1.946 0.76,-3.625 1.065,-4.797 l -3.42,-0.384 c -0.267,0.994 -0.609,2.445 -0.936,4.184 -0.307,1.622 -0.591,3.488 -0.765,5.464 -0.418,4.86 -0.119,10.357 2.273,14.386 0.336,0.562 0.706,1.085 1.1,1.574 0.706,0.865 1.515,1.609 2.407,2.238 1.44,1.016 3.132,1.724 5.054,2.104 C -7.089,6.2 -4.481,5.536 -2.44,3.608 -2.181,3.367 -1.934,3.096 -1.705,2.822 -1.021,2.008 -0.468,1.053 0,0"
         style="fill:#eaa241;fill-opacity:1;fill-rule:nonzero;stroke:none"
         id="path1444" /></g><g
       id="g1446"
       transform="matrix(0.35277777,0,0,-0.35277777,42.438849,155.64673)"
       clip-path="url(#clipPath4444)"><path
         d="M 0,0 -0.758,-5.05 -1.207,-5.098 -4.619,-5.48 -6.594,-5.704 c 0,0 0.682,3.096 1.031,4.406 0.085,0.309 0.149,0.531 0.176,0.582 l 3.123,0.417 z"
         style="fill:#005050;fill-opacity:1;fill-rule:nonzero;stroke:none"
         id="path1448" /></g><g
       id="g1450"
       transform="matrix(0.35277777,0,0,-0.35277777,48.329638,154.42492)"
       clip-path="url(#clipPath4440)"><path
         d="m 0,0 -3.269,0.019 c 0.182,3.793 0.058,8.868 -1.149,12.648 0.014,0.03 0.035,0.062 0.049,0.091 0.651,1.085 1.429,1.962 2.381,2.665 C 0.083,10.741 0.201,4.22 0,0"
         style="fill:#005050;fill-opacity:1;fill-rule:nonzero;stroke:none"
         id="path1452" /></g><g
       id="g1454"
       transform="matrix(0.35277777,0,0,-0.35277777,47.62821,148.98392)"
       clip-path="url(#clipPath4436)"><path
         d="m 0,0 c -0.952,-0.704 -1.729,-1.58 -2.381,-2.665 -0.014,-0.03 -0.035,-0.062 -0.049,-0.091 -0.42,1.309 -0.959,2.46 -1.674,3.351 -0.176,0.228 -0.368,0.444 -0.572,0.63 -1.246,1.161 -2.834,1.527 -4.887,1.116 -1.558,-0.309 -2.883,-0.863 -3.99,-1.685 -0.945,-0.693 -1.738,-1.591 -2.388,-2.676 -0.014,-0.029 -0.029,-0.05 -0.042,-0.081 -2.004,-3.447 -2.087,-8.595 -1.565,-13.208 0.146,-1.364 0.355,-2.672 0.574,-3.877 0.352,-1.946 0.751,-3.626 1.057,-4.798 l -3.412,-0.383 c -0.266,0.994 -0.618,2.444 -0.944,4.182 -0.272,1.463 -0.532,3.131 -0.699,4.896 -0.485,4.997 -0.271,10.783 2.215,14.956 0.336,0.562 0.697,1.083 1.093,1.564 0.705,0.874 1.511,1.635 2.413,2.257 1.44,1.016 3.125,1.714 5.047,2.094 3.123,0.628 5.73,-0.036 7.77,-1.955 0.261,-0.25 0.506,-0.512 0.737,-0.795 C -1.022,2.017 -0.459,1.054 0,0"
         style="fill:#eaa241;fill-opacity:1;fill-rule:nonzero;stroke:none"
         id="path1456" /></g><g
       id="g1458"
       transform="matrix(0.35277777,0,0,-0.35277777,37.658111,155.41848)"
       clip-path="url(#clipPath4432)"><path
         d="m 0,0 -0.758,-5.05 -0.45,-0.048 -3.411,-0.382 -1.975,-0.224 c 0,0 0.701,3.09 1.031,4.406 0.084,0.309 0.148,0.531 0.167,0.581 l 3.123,0.416 z"
         style="fill:#005050;fill-opacity:1;fill-rule:nonzero;stroke:none"
         id="path1460" /></g><g
       id="g1462"
       transform="matrix(0.35277777,0,0,-0.35277777,43.5368,154.39666)"
       clip-path="url(#clipPath4428)"><path
         d="m 0,0 -3.276,0.017 c 0.235,3.848 0.157,9.254 -1.11,13.226 0.014,0.03 0.029,0.051 0.042,0.081 0.651,1.085 1.444,1.982 2.389,2.675 C 0.217,11.094 0.243,4.19 0,0"
         style="fill:#005050;fill-opacity:1;fill-rule:nonzero;stroke:none"
         id="path1464" /></g><g
       id="g1466"
       transform="matrix(0.35277777,0,0,-0.35277777,42.847119,148.75257)"
       clip-path="url(#clipPath4424)"><path
         d="m 0,0 c -0.945,-0.693 -1.738,-1.59 -2.389,-2.675 -0.013,-0.03 -0.028,-0.051 -0.042,-0.081 -0.418,1.3 -0.966,2.449 -1.68,3.332 -0.177,0.236 -0.367,0.444 -0.574,0.639 -1.236,1.162 -2.824,1.529 -4.878,1.118 -2.877,-0.569 -4.961,-1.998 -6.378,-4.362 -2.136,-3.589 -2.146,-9.065 -1.547,-13.858 0.137,-1.155 0.315,-2.274 0.506,-3.309 0.352,-1.946 0.76,-3.625 1.065,-4.798 l -3.411,-0.382 c -0.267,0.995 -0.618,2.444 -0.944,4.183 -0.246,1.301 -0.481,2.771 -0.64,4.326 -0.553,5.123 -0.422,11.189 2.156,15.525 1.886,3.171 4.763,5.165 8.552,5.915 3.115,0.627 5.731,-0.035 7.77,-1.954 0.26,-0.242 0.507,-0.513 0.736,-0.787 C -1.021,2.008 -0.46,1.054 0,0"
         style="fill:#eaa241;fill-opacity:1;fill-rule:nonzero;stroke:none"
         id="path1468" /></g></g></svg>
